<?xml version="1.0" standalone="no"?>
<!DOCTYPE svg PUBLIC "-//W3C//DTD SVG 20010904//EN"
 "http://www.w3.org/TR/2001/REC-SVG-20010904/DTD/svg10.dtd">
<svg version="1.0" xmlns="http://www.w3.org/2000/svg"
 width="816.000000pt" height="804.000000pt" viewBox="0 0 816.000000 804.000000"
 preserveAspectRatio="xMidYMid meet">

<g transform="translate(0.000000,804.000000) scale(0.100000,-0.100000)"
fill="#000000" stroke="none">
<path d="M3855 7377 l-50 -12 -3 -46 c-3 -43 -5 -47 -34 -53 -17 -3 -71 -6
-121 -6 l-90 0 7 -222 c3 -123 9 -393 12 -600 l7 -378 42 0 c73 0 73 0 46
-225 -4 -38 -6 -233 -3 -432 l5 -361 46 -7 c64 -8 237 -51 352 -86 53 -16 102
-29 109 -29 11 0 12 108 8 569 l-6 569 49 6 c26 4 51 11 55 17 4 6 8 274 11
596 l4 584 -97 -2 -98 -2 -17 40 c-11 27 -25 42 -42 47 -13 3 -27 15 -30 26
-4 17 -13 20 -59 19 -29 0 -75 -6 -103 -12z m108 -89 c8 -22 7 -1731 -1 -1768
-7 -33 -11 -35 -50 -38 l-42 -3 1 73 c0 40 5 141 10 223 5 83 13 454 17 825 4
371 11 681 15 688 5 6 16 12 27 12 10 0 20 -6 23 -12z m-163 -167 c0 -26 3
-76 6 -110 l7 -61 -67 0 c-63 0 -66 1 -66 24 0 34 10 56 25 56 11 0 11 8 3 36
-5 20 -7 52 -3 70 6 33 8 34 50 34 l45 0 0 -49z m356 -111 l64 0 0 -30 c0 -27
-3 -30 -34 -30 -18 0 -54 3 -80 6 -43 6 -46 9 -46 36 0 23 4 29 16 24 9 -3 45
-6 80 -6z m-388 -126 l22 -6 0 -384 c0 -260 -3 -385 -11 -389 -6 -4 -26 -4
-45 0 l-35 6 3 377 c2 207 7 383 11 390 9 13 21 15 55 6z"/>
<path d="M4520 7256 l0 -74 43 -7 c373 -61 891 -278 1294 -542 62 -40 115 -78
118 -83 11 -18 22 -10 54 41 23 38 29 55 22 68 -31 57 -343 257 -608 389 -206
103 -506 206 -729 252 -209 42 -194 45 -194 -44z"/>
<path d="M3265 7273 c-146 -25 -448 -135 -657 -240 -135 -68 -369 -219 -508
-329 -47 -37 -148 -131 -225 -208 -327 -331 -565 -711 -746 -1193 -145 -388
-197 -650 -206 -1055 l-6 -248 -142 0 c-78 0 -144 -2 -146 -4 -2 -2 -3 -43 -1
-90 l3 -86 252 0 252 0 28 104 c27 99 90 241 124 278 14 15 12 21 -25 65 -53
65 -124 198 -120 225 2 13 18 32 36 43 79 48 122 87 201 180 114 137 207 280
242 372 15 42 33 81 38 86 7 7 35 2 88 -16 43 -14 110 -33 148 -42 112 -25
192 -53 318 -112 109 -51 119 -54 140 -40 22 14 22 21 25 183 4 194 0 220 -34
228 -20 5 -24 13 -24 41 0 22 8 43 20 55 20 20 20 20 -9 20 -29 0 -29 1 -35
63 -3 34 -8 83 -11 109 l-7 46 -126 7 c-69 4 -171 4 -226 0 -56 -5 -141 -11
-190 -14 l-89 -6 2 -82 c1 -49 -2 -84 -8 -88 -7 -4 -11 -50 -11 -119 l0 -114
-57 -4 c-82 -6 -103 -26 -103 -100 l0 -58 -52 0 c-69 0 -126 -16 -132 -38 -3
-9 -28 -107 -56 -216 -28 -110 -55 -207 -60 -216 -10 -18 -69 -255 -76 -305
-10 -64 -13 -102 -15 -152 -1 -29 -5 -53 -10 -53 -4 0 -10 -8 -12 -17 -19 -74
7 335 28 430 2 12 7 38 9 57 19 134 40 239 67 330 293 1000 884 1699 1729
2043 144 59 280 104 398 132 l72 17 0 62 c0 33 -4 66 -8 72 -5 8 -30 7 -87 -3z
m-1205 -1602 c19 -37 12 -51 -25 -51 -32 0 -35 3 -35 28 0 16 3 32 7 35 13 14
43 7 53 -12z m-130 -21 c0 -23 -4 -30 -20 -30 -16 0 -20 7 -20 30 0 23 4 30
20 30 16 0 20 -7 20 -30z m260 0 c0 -25 -4 -30 -25 -30 -14 0 -28 7 -31 15
-10 25 4 45 31 45 21 0 25 -5 25 -30z m0 -120 c0 -22 -4 -40 -9 -40 -26 0 -41
15 -41 39 0 32 7 41 32 41 14 0 18 -8 18 -40z m-380 1 c0 -34 -26 -49 -48 -27
-21 21 -6 56 24 56 20 0 24 -5 24 -29z m128 -3 c-2 -28 -8 -34 -30 -36 -26 -3
-28 -1 -28 32 0 33 2 36 31 36 28 0 30 -2 27 -32z m132 3 c0 -31 -16 -43 -49
-34 -15 4 -21 13 -21 34 0 26 3 29 35 29 32 0 35 -3 35 -29z m-252 -128 c3
-31 1 -33 -27 -33 -29 0 -31 3 -31 36 0 33 2 35 28 32 22 -2 28 -8 30 -35z
m120 0 c3 -30 1 -32 -27 -31 -28 1 -31 4 -31 35 0 32 2 34 28 31 22 -2 28 -8
30 -35z m130 0 c3 -31 1 -33 -27 -33 -29 0 -31 3 -31 36 0 33 2 35 28 32 22
-2 28 -8 30 -35z m122 2 c0 -33 -2 -35 -31 -35 -28 0 -31 3 -25 23 3 12 6 28
6 35 0 6 11 12 25 12 22 0 25 -4 25 -35z m-372 -122 c2 -24 -1 -33 -12 -33
-32 0 -46 13 -46 42 0 26 3 29 28 26 22 -2 28 -8 30 -35z m378 13 c8 -34 -2
-46 -37 -46 -25 0 -29 4 -29 28 0 35 6 42 36 42 17 0 25 -7 30 -24z m-256 -16
c0 -27 -3 -30 -30 -30 -27 0 -30 3 -30 30 0 27 3 30 30 30 27 0 30 -3 30 -30z
m130 0 c0 -26 -3 -30 -29 -30 -24 0 -29 5 -33 30 -4 28 -3 30 29 30 30 0 33
-3 33 -30z"/>
<path d="M6885 7276 c-116 -51 -581 -502 -802 -777 -17 -22 -62 -74 -101 -117
-238 -266 -504 -630 -798 -1094 -41 -64 -113 -172 -161 -240 -94 -133 -154
-228 -232 -362 l-49 -87 20 -42 c31 -62 26 -103 -21 -200 -22 -48 -41 -89 -41
-92 0 -3 10 -5 21 -5 40 0 98 -23 133 -51 43 -36 60 -100 46 -182 -10 -66 -20
-85 -72 -151 -21 -27 -37 -51 -35 -53 7 -7 2718 -5 2725 2 4 4 9 42 10 84 4
88 2 91 -82 91 l-39 0 6 74 c8 88 10 86 -103 86 l-79 0 0 139 c0 76 -3 167 -6
202 -17 179 -38 315 -65 419 -17 63 -34 127 -38 142 l-7 28 -50 -25 c-27 -13
-60 -25 -71 -25 l-21 0 19 -67 c46 -162 97 -507 98 -655 l0 -68 -75 0 -75 0 0
230 0 230 -60 0 -60 0 0 50 c0 36 -4 52 -15 57 -9 3 -22 20 -29 38 -13 29 -20
34 -65 40 -55 7 -145 -1 -174 -17 -16 -8 -18 -20 -15 -86 l3 -77 -73 -3 -73
-3 3 292 3 291 -45 -5 -45 -6 3 95 3 94 -35 0 -36 0 0 71 0 72 -46 -6 -45 -5
3 77 3 76 -37 3 -38 3 0 47 c0 82 -6 92 -56 92 l-44 0 0 -69 0 -70 -37 -3 -38
-3 -1 -70 -1 -69 -42 3 -41 3 0 -81 0 -81 -30 0 -30 0 0 -85 0 -85 -45 0 -45
0 0 -312 c0 -172 -4 -319 -9 -327 -7 -11 -41 -12 -187 -7 -99 4 -201 9 -227
12 -47 6 -48 7 -34 28 8 11 21 21 28 21 19 0 26 42 28 151 l1 91 -50 7 c-59 8
-68 21 -51 76 11 37 12 38 68 42 46 4 61 10 80 32 33 39 38 69 19 126 -15 45
-15 53 -1 87 9 20 42 67 74 103 36 40 61 79 66 100 12 58 35 92 101 155 48 46
74 83 110 154 34 67 69 116 119 170 39 42 91 103 115 136 24 33 102 122 173
197 l130 137 56 -5 c127 -13 208 22 253 111 18 34 20 51 14 130 -3 56 -2 85 3
75 15 -23 136 -19 186 7 104 55 155 180 109 268 l-16 30 47 43 c48 43 75 52
93 29 8 -9 14 -289 19 -877 l9 -865 -37 -41 c-51 -57 -62 -81 -55 -119 15 -77
117 -111 192 -64 44 27 54 47 54 104 0 39 -5 51 -41 90 -40 43 -41 46 -29 76
11 25 12 202 6 897 -6 796 -8 868 -24 885 -41 46 -108 59 -167 33z m-126 -302
c-5 -55 -12 -71 -36 -96 -32 -32 -82 -47 -152 -48 l-44 0 19 22 c25 27 207
188 215 188 3 0 2 -30 -2 -66z m-305 -265 c11 -58 6 -86 -24 -127 -20 -28 -41
-44 -67 -51 -46 -13 -103 -14 -103 -2 0 17 165 211 180 211 4 0 10 -14 14 -31z
m-410 -1161 c3 -13 6 -47 6 -75 0 -51 1 -52 24 -43 13 5 27 6 30 3 3 -4 6
-282 6 -620 l0 -613 -25 0 -24 0 -3 599 c-2 330 -6 602 -9 605 -3 3 -19 1 -35
-5 l-29 -11 0 -597 0 -596 -25 3 c-14 2 -26 5 -27 5 0 1 -3 276 -5 610 l-3
609 27 -4 c26 -4 26 -4 33 74 7 73 9 78 30 78 15 0 25 -8 29 -22z m1014 -231
c12 -24 11 -31 -2 -53 -21 -31 -39 -30 -65 2 -25 32 -26 47 -5 69 23 23 57 15
72 -18z m-1204 -594 c-1 -263 -3 -488 -3 -499 -1 -29 -47 -39 -54 -13 -3 10
-2 236 1 503 l5 486 27 0 27 0 -3 -477z m394 -23 l3 -500 -31 0 -30 0 0 500 0
500 28 0 27 0 3 -500z m-1281 3 c-8 -15 -25 -37 -38 -48 l-23 -20 19 30 c44
71 72 96 42 38z m1691 -101 c3 -28 0 -32 -22 -32 -28 0 -33 17 -15 51 15 28
33 18 37 -19z m-118 -7 c0 -27 -26 -35 -48 -13 -21 21 -13 38 18 38 25 0 30
-4 30 -25z m250 5 c0 -16 -7 -20 -30 -20 -23 0 -30 4 -30 20 0 16 7 20 30 20
23 0 30 -4 30 -20z m-274 -48 c6 -4 13 -26 17 -49 5 -40 4 -43 -19 -43 -22 0
-24 4 -24 50 0 49 4 57 26 42z m144 -38 c0 -30 -3 -34 -25 -34 -22 0 -25 4
-25 39 0 35 2 38 25 33 21 -4 25 -10 25 -38z m-1100 -24 l0 -60 -25 22 c-38
33 -30 98 12 98 9 0 13 -17 13 -60z m-124 -77 c-11 -11 -45 20 -51 47 -9 41 2
68 28 72 20 3 22 -2 25 -56 2 -32 1 -60 -2 -63z m1344 92 c0 -14 0 -28 0 -32
0 -5 -11 -8 -25 -8 -14 0 -25 3 -25 8 0 4 0 18 0 32 0 20 5 25 25 25 20 0 25
-5 25 -25z m-120 -145 c0 -68 -1 -70 -25 -70 -24 0 -25 2 -25 70 0 68 1 70 25
70 24 0 25 -2 25 -70z m-146 54 c11 -4 16 -19 16 -50 0 -37 -3 -44 -20 -44
-17 0 -20 7 -20 50 0 28 2 50 4 50 2 0 11 -3 20 -6z m266 -55 c0 -60 0 -60
-27 -57 -27 3 -28 5 -25 52 2 48 13 66 40 66 8 0 12 -19 12 -61z m-1340 -36
c0 -53 0 -54 -27 -51 -26 3 -28 6 -31 59 l-3 56 31 -5 c29 -4 30 -6 30 -59z
m130 7 c0 -57 -1 -60 -25 -60 -24 0 -25 3 -25 60 0 57 1 60 25 60 24 0 25 -3
25 -60z m-260 3 c0 -35 -3 -44 -11 -36 -7 7 -9 25 -5 47 9 50 16 45 16 -11z
m691 -293 c24 -13 26 -65 3 -74 -29 -11 -83 -6 -98 10 -24 24 -20 62 7 67 41
8 68 7 88 -3z m239 -35 l0 -46 -57 3 -58 3 -3 37 -3 37 53 4 c29 2 56 4 61 5
4 1 7 -18 7 -43z m-840 -5 l0 -40 -55 0 c-52 0 -55 2 -55 24 0 48 9 56 61 56
l49 0 0 -40z m450 12 c0 -39 -17 -52 -66 -52 -44 0 -54 10 -54 56 0 23 3 24
60 24 59 0 60 0 60 -28z m814 22 c10 -4 16 -18 16 -35 0 -28 -2 -29 -50 -29
l-50 0 0 35 c0 33 2 35 34 35 19 0 41 -3 50 -6z"/>
<path d="M4707 6772 c-24 -26 -21 -65 6 -90 29 -27 51 -28 77 -2 24 24 26 72
4 94 -21 22 -67 20 -87 -2z"/>
<path d="M4878 6764 c-10 -22 -9 -32 7 -62 24 -44 55 -52 84 -23 43 43 15 111
-45 111 -27 0 -37 -5 -46 -26z"/>
<path d="M2980 6752 c-30 -26 -31 -64 0 -73 65 -19 131 -25 153 -15 30 16 37
80 9 95 -31 17 -139 12 -162 -7z"/>
<path d="M5484 6552 c-17 -11 -34 -48 -34 -73 0 -49 94 -70 124 -27 23 33 20
74 -6 92 -24 17 -65 21 -84 8z"/>
<path d="M2280 6467 c-31 -15 -39 -66 -15 -91 36 -36 105 -8 105 42 0 24 -33
62 -52 62 -7 0 -24 -6 -38 -13z"/>
<path d="M2730 6335 l0 -75 -62 0 -63 0 -1 -478 c0 -262 -4 -539 -8 -616 -7
-131 -6 -138 11 -131 10 4 74 18 143 32 121 24 134 24 410 19 157 -4 298 -9
313 -12 l28 -7 -3 599 -3 599 -65 7 c-150 17 -290 28 -357 28 l-73 0 0 49 0
48 -46 7 c-26 3 -87 6 -135 6 l-89 0 0 -75z m158 -4 c10 -6 13 -122 15 -577 0
-313 -2 -579 -6 -590 -8 -21 -59 -40 -78 -28 -5 3 -9 262 -9 605 l0 599 33 0
c17 0 38 -4 45 -9z m362 -142 c137 -13 170 -21 170 -43 0 -13 -25 -14 -177 -9
-201 6 -236 11 -241 37 -6 27 16 36 73 31 28 -3 106 -10 175 -16z m23 -231
c-2 -5 -3 -174 -3 -378 l0 -370 -25 0 c-19 0 -25 5 -26 23 -2 128 3 671 8 700
5 32 9 38 27 35 11 -2 20 -6 19 -10z"/>
<path d="M4870 6358 l0 -55 -115 -7 c-63 -4 -142 -12 -177 -18 -35 -5 -97 -13
-138 -16 l-75 -7 -6 -320 c-3 -176 -3 -493 -1 -704 l5 -384 46 -19 c103 -43
228 -108 245 -127 18 -20 19 -20 55 39 20 33 65 99 101 146 36 48 71 98 79
112 10 19 14 108 17 396 3 204 9 460 14 569 6 109 10 238 10 288 l0 89 39 0
c32 0 39 -4 43 -22 2 -13 0 -138 -4 -278 -5 -140 -9 -398 -11 -572 l-2 -317
23 27 c12 15 43 59 68 97 25 39 74 111 108 160 l61 90 0 367 0 368 -72 0 -73
0 0 58 c0 31 -4 63 -8 70 -6 8 -47 14 -120 19 l-112 6 0 -55z m-12 -184 c3
-20 -3 -21 -89 -27 -51 -4 -115 -8 -143 -8 -28 -1 -43 -3 -33 -6 16 -4 17 -39
17 -554 l0 -549 -30 0 c-24 0 -33 6 -41 28 -7 18 -9 198 -7 550 l4 522 -32 0
c-35 0 -53 15 -37 31 21 21 142 38 263 36 119 -2 125 -3 128 -23z"/>
<path d="M6306 6312 l-37 -39 102 -129 c56 -71 143 -192 194 -269 99 -151 253
-422 264 -463 7 -26 8 -25 50 28 52 65 51 76 -16 205 -139 271 -410 662 -480
694 -34 16 -35 15 -77 -27z"/>
<path d="M1996 6061 c-7 -10 -2 -48 10 -93 7 -24 49 -23 74 2 20 20 27 74 12
84 -21 13 -90 18 -96 7z"/>
<path d="M2147 6052 c-34 -38 -8 -102 42 -102 32 0 71 37 71 67 0 47 -80 72
-113 35z"/>
<path d="M1748 4983 c0 -16 0 -36 0 -46 1 -9 -11 -39 -28 -65 -16 -26 -26 -50
-22 -54 4 -3 38 -23 75 -42 83 -44 147 -86 147 -96 0 -4 -8 -18 -18 -30 l-17
-21 -60 29 c-68 34 -184 82 -197 82 -16 0 -58 -49 -58 -68 0 -14 22 -29 85
-57 99 -44 113 -56 90 -79 -9 -9 -22 -16 -29 -16 -18 0 -158 58 -170 70 -18
18 -55 11 -70 -12 -31 -49 -26 -59 53 -92 41 -17 76 -36 78 -41 2 -6 -3 -19
-10 -30 -14 -18 -16 -18 -67 -1 -30 10 -73 27 -96 38 -46 21 -101 18 -110 -7
-12 -31 58 -111 140 -160 15 -9 9 -22 -50 -110 -80 -119 -106 -174 -133 -279
-25 -96 -28 -294 -7 -396 32 -150 132 -352 246 -495 109 -137 271 -265 505
-399 55 -32 117 -74 138 -94 21 -21 80 -98 130 -172 124 -182 198 -259 304
-316 67 -37 95 -47 136 -48 l52 -1 3 50 c1 28 11 122 22 210 11 88 24 201 30
250 10 96 7 89 148 359 34 65 62 124 62 131 0 20 -162 25 -286 10 -104 -13
-158 -27 -286 -74 -161 -59 -277 18 -278 185 0 109 70 208 186 261 59 27 197
68 262 79 l42 7 -6 -71 -7 -70 42 -27 c22 -15 41 -32 41 -38 0 -6 3 -7 7 -4 3
4 25 -11 48 -32 74 -68 181 -65 297 8 74 47 122 124 158 252 11 40 25 76 30
79 13 8 126 28 400 70 107 16 251 39 320 50 353 55 682 204 741 335 29 62 25
98 -13 130 l-33 28 -157 -7 c-87 -4 -158 -4 -158 -1 0 25 49 89 104 135 88 73
136 144 136 202 0 56 -28 101 -86 138 -129 82 -543 224 -798 275 -282 56 -327
60 -646 60 -330 0 -356 -3 -669 -87 -123 -33 -157 -39 -170 -30 -74 55 -414
171 -498 172 -18 0 -23 -6 -25 -27z m140 -99 c106 -39 207 -88 217 -103 3 -6
-7 -17 -22 -25 -25 -12 -33 -12 -63 0 -120 50 -250 131 -250 155 0 15 17 11
118 -27z m1702 -89 c153 -27 469 -109 563 -146 27 -11 76 -29 110 -40 134 -45
259 -121 243 -148 -4 -6 -35 -30 -69 -53 -141 -95 -315 -252 -405 -366 -54
-69 -55 -86 -4 -78 20 3 84 10 142 16 58 5 143 16 190 24 119 20 260 31 260
19 0 -38 -170 -121 -331 -162 -141 -36 -279 -61 -339 -61 -26 0 -66 10 -95 23
-27 13 -80 34 -117 46 -80 26 -171 83 -215 135 -56 63 -76 113 -81 202 -6 112
18 158 151 287 l100 97 -50 0 c-28 0 -81 -9 -118 -21 -59 -18 -76 -29 -136
-91 -97 -100 -113 -138 -117 -268 -4 -129 16 -192 88 -279 53 -63 154 -123
265 -157 33 -10 71 -25 84 -33 22 -14 22 -15 5 -29 -14 -10 -44 -13 -120 -10
-86 4 -110 9 -167 35 -130 62 -213 138 -267 248 -72 145 -62 337 23 465 59 89
106 128 230 192 l67 35 -52 7 c-77 10 -356 5 -488 -9 -189 -21 -398 -69 -544
-125 -395 -152 -700 -416 -792 -685 -25 -72 -28 -96 -32 -251 -3 -149 -1 -183
17 -253 24 -98 78 -213 160 -344 33 -54 61 -101 61 -103 0 -9 -53 35 -119 99
-125 121 -231 315 -276 507 -50 210 -23 366 98 565 112 184 342 388 597 527
149 82 352 144 610 187 174 29 175 29 460 26 227 -2 272 -5 410 -30z m-616
-783 c9 -32 16 -61 16 -64 0 -3 -28 -22 -62 -43 -35 -21 -121 -77 -193 -125
-169 -113 -189 -123 -227 -114 -18 3 -60 33 -98 68 -37 33 -93 83 -124 110
-32 27 -54 52 -49 57 16 16 210 89 303 114 60 16 146 29 235 35 77 6 147 12
155 14 8 2 18 4 21 5 4 0 14 -25 23 -57z m166 -494 c0 -23 -56 -132 -85 -166
-34 -41 -100 -75 -129 -68 -38 10 -96 65 -96 92 0 33 23 85 47 106 41 37 263
66 263 36z m-320 -673 c0 -37 -101 -185 -128 -186 -9 0 -63 0 -119 1 -89 1
-103 -1 -103 -15 0 -19 55 -45 148 -70 69 -20 85 -37 80 -88 l-3 -32 -67 3
c-38 1 -68 0 -68 -3 0 -3 22 -15 50 -27 27 -12 51 -27 54 -33 6 -17 -14 -186
-25 -207 -5 -10 -15 -18 -22 -18 -36 0 -206 234 -277 382 -46 95 -51 141 -17
160 32 18 250 97 327 119 61 17 170 26 170 14z"/>
<path d="M3897 4546 c-47 -17 -175 -114 -224 -170 -57 -65 -76 -118 -68 -184
6 -47 13 -62 51 -103 45 -47 102 -81 181 -105 35 -11 43 -10 54 2 9 11 9 18 1
26 -35 35 8 119 115 225 69 68 196 172 246 201 59 35 26 60 -131 96 -126 29
-170 31 -225 12z m122 -62 c25 -32 26 -52 5 -82 -32 -46 -114 -13 -114 47 0
60 72 83 109 35z"/>
<path d="M988 3705 c-11 -11 55 -301 100 -435 72 -219 253 -552 439 -808 51
-71 141 -171 268 -297 168 -168 212 -206 375 -321 250 -176 410 -268 630 -359
266 -111 683 -211 921 -222 146 -7 154 -3 185 86 12 33 25 52 39 55 32 9 409
7 422 -2 7 -5 20 -31 28 -59 23 -76 24 -76 177 -64 230 18 482 73 768 167 276
91 651 322 924 569 189 171 347 363 496 601 191 307 319 605 410 958 31 121
33 116 -59 116 l-79 0 -9 -52 -8 -53 -200 4 c-186 3 -205 1 -265 -19 -54 -19
-79 -21 -147 -17 -73 5 -93 11 -171 52 -77 40 -92 45 -116 35 -15 -5 -35 -17
-44 -27 -14 -14 -35 -15 -163 -10 -157 7 -159 7 -159 -43 0 -10 -13 -43 -30
-74 -16 -31 -24 -53 -17 -49 7 4 82 8 167 9 167 1 207 10 225 52 5 12 13 22
16 22 6 0 36 -21 110 -78 48 -37 122 -61 189 -62 25 0 156 2 293 6 l247 7 0
-22 c0 -12 -19 -64 -42 -116 l-43 -95 -392 4 c-358 4 -393 3 -393 -11 0 -27
-38 -97 -70 -130 l-30 -30 47 -7 c25 -3 207 -6 404 -6 198 0 359 -4 359 -8 0
-4 -4 -12 -9 -18 -5 -5 -28 -46 -51 -91 l-43 -83 -1746 -2 c-960 -1 -1763 -3
-1784 -3 -33 -1 -40 -6 -58 -41 -12 -21 -26 -48 -33 -59 -7 -11 -18 -35 -24
-52 l-11 -33 1765 0 c1471 0 1764 -2 1764 -13 0 -8 -21 -38 -47 -68 -27 -30
-59 -69 -73 -86 l-25 -32 -1711 -1 -1712 -1 -6 -52 c-4 -29 -10 -69 -13 -89
l-6 -38 1637 0 c900 0 1636 -4 1636 -8 0 -11 -73 -79 -160 -148 l-75 -59
-1545 4 -1545 3 -23 -47 c-13 -26 -37 -65 -55 -86 -31 -38 -34 -39 -98 -39
-37 0 -85 7 -108 15 -49 17 -166 91 -205 130 -26 26 -29 27 -104 20 l-78 -7
-50 39 c-154 118 -225 178 -213 181 8 1 60 6 117 10 l103 7 -63 83 -63 84
-135 1 -134 2 -73 90 c-40 49 -73 92 -73 97 0 4 21 8 48 10 l47 3 -57 57 c-32
32 -84 71 -120 89 -35 17 -66 37 -70 44 -4 7 -37 53 -73 103 -107 150 -156
239 -224 411 -41 101 -81 272 -81 343 0 63 -5 68 -74 68 -35 0 -65 -2 -68 -5z
m4712 -1924 c-19 -16 -109 -64 -200 -107 l-165 -79 -1205 0 -1205 0 -100 45
c-115 52 -292 147 -300 161 -4 5 594 9 1602 9 l1608 -1 -35 -28z"/>
<path d="M5545 3619 c-131 -70 -233 -78 -346 -27 l-71 31 -132 -21 c-109 -18
-173 -22 -371 -22 -231 0 -245 -1 -414 -34 -295 -58 -408 -77 -540 -92 -161
-18 -253 -36 -258 -50 -3 -8 40 -16 128 -24 109 -11 175 -11 378 0 135 7 399
12 586 11 328 -1 344 0 460 24 66 14 129 25 139 25 11 0 49 -12 85 -27 151
-61 306 -14 396 120 33 49 48 117 26 117 -4 0 -34 -14 -66 -31z"/>
<path d="M2475 3246 c-86 -27 -125 -76 -125 -155 0 -56 25 -66 117 -47 89 19
118 42 117 92 -1 47 -33 118 -54 121 -8 1 -33 -4 -55 -11z"/>
<path d="M3290 3159 c0 -4 -15 -24 -34 -44 -19 -20 -32 -43 -30 -50 3 -7 1
-30 -5 -50 l-10 -36 1322 3 c727 2 1330 7 1339 12 14 7 12 12 -18 38 -40 36
-64 77 -64 111 l0 24 -1250 0 c-687 1 -1250 -3 -1250 -8z"/>
<path d="M1691 1643 c-40 -37 -46 -70 -22 -110 41 -66 123 -46 129 32 5 59 -4
82 -39 94 -40 14 -34 15 -68 -16z"/>
<path d="M1376 1629 c-14 -17 -26 -37 -26 -44 0 -51 61 -102 103 -86 58 22 74
91 31 135 -37 36 -75 34 -108 -5z"/>
<path d="M6334 1642 c-51 -41 -57 -91 -15 -133 40 -40 83 -39 122 2 33 35 36
57 14 99 -26 51 -81 65 -121 32z"/>
<path d="M6636 1629 c-37 -43 -35 -89 5 -128 39 -39 72 -40 110 -2 60 60 26
161 -55 161 -26 0 -40 -7 -60 -31z"/>
<path d="M1870 1630 c-38 -38 -16 -120 32 -120 30 0 68 40 68 71 0 33 -31 69
-60 69 -11 0 -29 -9 -40 -20z"/>
<path d="M2322 985 l-1 -218 115 5 c114 5 116 6 171 44 76 53 106 100 111 178
3 55 0 66 -27 106 -16 25 -49 57 -73 70 -38 22 -57 25 -169 28 l-125 4 -2
-217z m266 79 c42 -48 27 -130 -30 -160 -15 -8 -52 -14 -83 -14 l-55 0 0 106
0 107 73 -7 c59 -6 76 -11 95 -32z"/>
<path d="M3080 1193 l-155 -3 3 -208 c2 -114 4 -208 5 -208 1 -1 75 -4 165 -5
l163 -4 -3 50 -3 50 -112 3 -113 3 0 34 0 35 90 0 90 0 0 29 c0 55 -5 58 -83
54 -85 -6 -112 7 -102 48 l6 25 115 -4 114 -5 0 57 c0 39 -4 55 -12 54 -7 -1
-83 -4 -168 -5z"/>
<path d="M3453 1184 c-2 -7 -3 -31 -1 -55 l3 -44 63 3 62 4 0 -124 c0 -67 3
-140 6 -160 7 -38 7 -38 55 -38 l48 0 -6 157 -6 156 68 -6 67 -6 -4 54 c-3 30
-7 57 -9 59 -2 2 -80 6 -173 8 -119 2 -170 0 -173 -8z"/>
<path d="M4013 1183 c-5 -14 4 -394 10 -399 1 -1 23 -5 50 -8 l47 -7 0 48 c0
26 4 54 9 62 15 24 54 4 104 -54 46 -53 50 -55 98 -55 27 0 49 2 49 5 0 2 -16
29 -35 59 -19 30 -35 58 -35 62 0 3 11 19 24 35 34 40 50 120 32 162 -15 37
-67 85 -99 91 -12 3 -73 7 -135 9 -95 4 -114 2 -119 -10z m228 -109 c26 -13
30 -19 24 -42 -11 -44 -24 -52 -86 -52 -49 0 -59 3 -59 18 0 9 -3 34 -6 55
l-7 37 52 0 c29 0 66 -7 82 -16z"/>
<path d="M5520 1152 l0 -51 68 -3 c44 -2 67 -7 68 -15 1 -7 2 -80 3 -163 l1
-150 50 0 51 0 -1 163 -2 162 61 -1 61 -1 0 49 0 48 -142 0 c-79 0 -160 3
-180 6 l-38 7 0 -51z"/>
<path d="M4700 1157 c-171 -102 -136 -344 56 -388 43 -10 56 -8 106 11 99 37
148 104 148 201 0 92 -67 172 -165 198 -63 17 -87 13 -145 -22z m165 -108 c29
-26 35 -38 35 -71 0 -32 -7 -47 -35 -75 -32 -32 -39 -35 -78 -30 -57 8 -97 52
-97 106 0 32 6 44 35 70 25 22 46 31 70 31 24 0 45 -9 70 -31z"/>
<path d="M5240 979 c0 -188 2 -210 16 -205 9 3 31 6 50 6 l34 0 0 205 0 205
-50 0 -50 0 0 -211z"/>
<path d="M1875 1039 c-23 -21 -35 -40 -35 -57 0 -29 45 -82 70 -82 24 0 70 53
70 81 0 34 -38 88 -62 89 -4 0 -23 -14 -43 -31z"/>
<path d="M6299 1043 c-39 -33 -39 -75 0 -114 39 -38 62 -37 100 6 37 43 38 55
6 93 -34 41 -69 46 -106 15z"/>
<path d="M6661 1024 c-12 -15 -21 -33 -21 -41 0 -22 28 -70 45 -77 23 -8 62
10 80 38 15 23 15 27 0 56 -14 27 -48 50 -75 50 -5 0 -18 -12 -29 -26z"/>
</g>
</svg>
